G04 DesignSpark PCB Gerber Version 9.0 Build 5138 *
%FSLAX35Y35*%
%MOIN*%
%ADD23C,0.00500*%
%ADD86C,0.00602*%
%ADD87C,0.00984*%
X0Y0D02*
D02*
D23*
D02*
D86*
X52013Y61624D02*
X50536D01*
X51274Y61008*
X50536Y60393*
X52013*
Y59286D02*
Y58794D01*
Y59040D02*
X50536D01*
Y59286D02*
Y58794D01*
X51644Y57687D02*
X51890Y57563D01*
X52013Y57317*
Y56825*
X51890Y56579*
X51644Y56456*
X51398Y56579*
X51274Y56825*
Y57317*
X51152Y57563*
X50906Y57687*
X50659Y57563*
X50536Y57317*
Y56825*
X50659Y56579*
X50906Y56456*
X50930Y52175D02*
X52406Y51559D01*
X50930Y50944*
X52160Y48976D02*
X52283Y49099D01*
X52406Y49345*
Y49714*
X52283Y49960*
X52160Y50083*
X51914Y50206*
X51422*
X51176Y50083*
X51053Y49960*
X50930Y49714*
Y49345*
X51053Y49099*
X51176Y48976*
X52160Y47007D02*
X52283Y47130D01*
X52406Y47376*
Y47746*
X52283Y47992*
X52160Y48115*
X51914Y48238*
X51422*
X51176Y48115*
X51053Y47992*
X50930Y47746*
Y47376*
X51053Y47130*
X51176Y47007*
X61019Y47057D02*
X62495D01*
X61757Y47672*
X62495Y48287*
X61019*
X61511Y49025D02*
X62003D01*
X62249Y49148*
X62372Y49271*
X62495Y49517*
Y49763*
X62372Y50009*
X62249Y50133*
X62003Y50256*
X61511*
X61265Y50133*
X61142Y50009*
X61019Y49763*
Y49517*
X61142Y49271*
X61265Y49148*
X61511Y49025*
X61388Y50994D02*
X61142Y51117D01*
X61019Y51363*
Y51855*
X61142Y52101*
X61388Y52224*
X61634Y52101*
X61757Y51855*
Y51363*
X61880Y51117*
X62126Y50994*
X62372Y51117*
X62495Y51363*
Y51855*
X62372Y52101*
X62126Y52224*
X61388Y56899D02*
X61142Y57022D01*
X61019Y57269*
Y57761*
X61142Y58007*
X61388Y58130*
X61634Y58007*
X61757Y57761*
Y57269*
X61880Y57022*
X62126Y56899*
X62372Y57022*
X62495Y57269*
Y57761*
X62372Y58007*
X62126Y58130*
X61265Y60098D02*
X61142Y59975D01*
X61019Y59729*
Y59360*
X61142Y59114*
X61265Y58991*
X61511Y58868*
X62003*
X62249Y58991*
X62372Y59114*
X62495Y59360*
Y59729*
X62372Y59975*
X62249Y60098*
X61019Y60836D02*
X62495D01*
X61757D02*
Y61206D01*
X62495Y62067*
X61757Y61206D02*
X61019Y62067D01*
X71476Y47524D02*
Y47893D01*
X71354*
X71107Y47770*
X70984Y47647*
X70861Y47401*
Y47155*
X70984Y46909*
X71107Y46786*
X71354Y46663*
X71846*
X72092Y46786*
X72215Y46909*
X72338Y47155*
Y47401*
X72215Y47647*
X72092Y47770*
X71846Y47893*
X70861Y48631D02*
X72338D01*
X70861Y49862*
X72338*
X70861Y50600D02*
X72338D01*
Y51338*
X72215Y51584*
X72092Y51707*
X71846Y51830*
X71354*
X71107Y51707*
X70984Y51584*
X70861Y51338*
Y50600*
X72091Y62805D02*
X70615D01*
Y61943*
X70738Y61697*
X70984Y61574*
X71230Y61697*
X71353Y61943*
Y62805*
Y61943D02*
X72091Y61574D01*
X71722Y60836D02*
X71969Y60713D01*
X72091Y60467*
Y59975*
X71969Y59729*
X71722Y59606*
X71476Y59729*
X71353Y59975*
Y60467*
X71230Y60713*
X70984Y60836*
X70738Y60713*
X70615Y60467*
Y59975*
X70738Y59729*
X70984Y59606*
X72091Y58252D02*
X70615D01*
Y58868D02*
Y57637D01*
D02*
D87*
X108303Y15364D02*
G75*
G03Y14380J-492D01*
G01*
Y15364D02*
G75*
G03Y14380J-492D01*
G01*
G75*
G03Y15364J492*
G01*
X0Y0D02*
M02*
