G05
M48
INCH,TZ
FMAT,2
T1C000.01181
T2C000.02165
T3C000.03000
T4C000.03200
%
T001
X0.06461Y0.11828
X0.21461Y0.37419
X0.29461Y0.45624
X0.29461Y0.59624
X0.32461Y0.25624
X0.44461Y0.28624
X0.44902Y0.59624
X0.47413Y0.22624
X0.50413Y0.45088
X0.51461Y0.56624
X0.52461Y0.27576
X0.57461Y0.12624
X0.62461Y0.24624
X0.67461Y0.42726
X0.70492Y0.63986
X0.76004Y0.44301
X0.81122Y0.25403
X0.81909Y0.53750
X0.82461Y0.61624
X0.86634Y0.51624
X0.87461Y0.41939
X0.88602Y0.10624
X0.89783Y0.59655
X0.92461Y0.07687
X0.92933Y0.41939
X0.94508Y0.62017
X0.95295Y0.51624
X0.98445Y0.06112
X0.98642Y0.54124
X1.03957Y0.54124
X1.06713Y0.10443
X1.08461Y0.59655
X1.08681Y0.14576
X1.08681Y0.36820
X1.10256Y0.10443
X1.12618Y0.23435
X1.13012Y0.04537
X1.15374Y0.46269
X1.18524Y0.34852
T002
X0.10039Y0.59124
X0.14961Y0.59124
T003
X0.32461Y0.09124
X0.32461Y0.39124
X0.42461Y0.09124
X0.42461Y0.39124
X0.52461Y0.09124
X0.52461Y0.39124
X0.62461Y0.09124
X0.62461Y0.39124
X0.72461Y0.09124
X0.72461Y0.39124
X0.82461Y0.09124
X0.82461Y0.39124
T004
X0.35591Y0.54124
X1.14331Y0.54124
M30
