G04 DesignSpark PCB Gerber Version 9.0 Build 5138 *
%FSLAX35Y35*%
%MOIN*%
%ADD26R,0.01181X0.03346*%
%ADD16R,0.01654X0.02441*%
%ADD28R,0.12795X0.12795*%
%ADD10C,0.00787*%
%ADD11C,0.02362*%
%ADD14C,0.03937*%
%ADD73C,0.05906*%
%ADD12C,0.06000*%
%ADD27R,0.03346X0.01181*%
%ADD72R,0.02441X0.01654*%
%ADD13R,0.02953X0.02362*%
%AMT29*0 Rectangle Pad at angle 155*21,1,0.01654,0.02441,0,0,155*%
%ADD29T29*%
X0Y0D02*
D02*
D10*
X6461Y11828D02*
Y55545D01*
X10039Y59124*
X21461Y37419D02*
Y51624D01*
X29461Y59624*
Y45624D02*
X40461D01*
X51461Y56624*
X32461Y9124D02*
Y15458D01*
X32295Y15624*
X36626D02*
X36461Y15789D01*
Y18624*
X37685Y19848*
X38996*
X39039Y19891*
X82303*
X83681Y21269*
X88815*
X42461Y9124D02*
Y15458D01*
X42295Y15624*
X42461Y39124D02*
Y33789D01*
X41295Y32624*
X44461Y28624D02*
Y31458D01*
X45626Y32624*
X47413Y22624D02*
Y21860D01*
X70689*
X71083Y22254*
X81909*
X82894Y23238*
X88815*
X52461Y9124D02*
Y16458D01*
X52295Y16624*
X53957Y30624D02*
X50461D01*
X45461Y25624*
X32461*
X56161Y49537D02*
X54862D01*
X50413Y45088*
X56161Y59537D02*
X44988D01*
X44902Y59624*
X62461Y39124D02*
Y38624D01*
X59461Y35624*
Y32789*
X59295Y32624*
X63626D02*
Y32789D01*
X67461Y36624*
Y42726*
X66161Y49537D02*
X65098D01*
X57894Y42332*
Y37608*
X55925Y35639*
Y32592*
X53957Y30624*
X66295Y14624D02*
X59461D01*
X57461Y12624*
X70492Y63986D02*
Y63868D01*
X66161Y59537*
X72461Y9124D02*
Y12789D01*
X70626Y14624*
X72461Y39124D02*
Y38624D01*
X69461Y35624*
Y32789*
X69295Y32624*
X73626D02*
Y33789D01*
X77461Y37624*
Y42844*
X76004Y44301*
X76161Y49537D02*
X77697D01*
X81909Y53750*
X76161Y59537D02*
X81398Y64773D01*
X97657*
X106713Y55718*
Y42726*
X111437Y38002*
Y26191*
X110453Y25206*
X108106*
X81909Y53750D02*
Y61072D01*
X82461Y61624*
X87461Y41939D02*
Y46663D01*
X86634*
Y51624*
X88815Y19301D02*
Y17923D01*
X59303*
X58004Y16624*
X56626*
X88815Y25206D02*
X81122D01*
Y25403*
X88815Y27175D02*
X83098D01*
X82114Y28159*
X79547*
X77185Y25797*
X63634*
X62461Y24624*
X88815Y29143D02*
X83886D01*
X82406Y30624*
X79461*
X76461Y27624*
X52508*
X52461Y27576*
X88815Y31112D02*
X85256D01*
Y31506*
X84138Y32624*
X78894*
X76004Y29734*
X56035*
X55146Y30624*
X53957*
X88815Y33080D02*
X89382D01*
X89461Y33159*
Y40041*
X89783Y40364*
Y40757*
X90177Y41151*
Y43120*
X89783Y43513*
Y59655*
X92461Y7687D02*
X89398Y4624D01*
X48461*
X47461Y5624*
Y14789*
X46626Y15624*
X92545Y11751D02*
X89730D01*
X88602Y10624*
X92933Y41939D02*
Y41151D01*
X91752Y39970*
Y36017*
X91571Y35836*
X93539D02*
Y38395D01*
X95508Y40364*
X96280*
X96673Y40757*
X94508Y62017D02*
Y55931D01*
X92146Y53569*
Y43513*
X92933*
Y41939*
X95295Y51624D02*
Y45482D01*
X96870Y43907*
Y40954*
X96673Y40757*
X95508Y16545D02*
Y13411D01*
X94508Y12411*
X93205*
X92545Y11751*
X97476Y16545D02*
Y10927D01*
X96470Y9921*
X99445Y16545D02*
Y7112D01*
X98445Y6112*
X99445Y35836D02*
Y39198D01*
X101004Y40757*
Y47057*
X98642*
Y54124*
X101413Y16545D02*
Y5403D01*
X103461Y3356*
X103382Y16545D02*
X103461Y16466D01*
Y8576*
X104350Y7687*
X116949*
X119311Y10049*
Y34065*
X118524Y34852*
X103461Y3356D02*
X95295D01*
Y10017*
X95391Y9921*
X96470*
X103461Y3356D02*
X111571D01*
X112752Y4537*
X113012*
X103957Y54124D02*
Y41545D01*
X108681Y36820*
X105350Y16545D02*
Y12624D01*
X106713*
Y10443*
X108106Y19301D02*
Y17639D01*
X108217Y17529*
X116650*
X117343Y18222*
Y30128*
X115768Y31702*
Y42356*
X115374Y42750*
Y46269*
X108106Y23238D02*
X112421D01*
X112618Y23435*
X108461Y59655D02*
X109469D01*
Y49624*
X112224Y46868*
Y41939*
X113406Y40757*
Y30521*
X115374Y28553*
Y20285*
X114587Y19498*
X111831*
X111437Y19891*
Y20285*
X110453Y21269*
X108106*
X110256Y10443D02*
X113996D01*
X114193Y10246*
Y14576D02*
X108681D01*
D02*
D11*
X6461Y11828D03*
X21461Y37419D03*
X29461Y45624D03*
Y59624D03*
X32461Y25624D03*
X44461Y28624D03*
X44902Y59624D03*
X47413Y22624D03*
X50413Y45088D03*
X51461Y56624D03*
X52461Y27576D03*
X57461Y12624D03*
X62461Y24624D03*
X67461Y42726D03*
X70492Y63986D03*
X76004Y44301D03*
X81122Y25403D03*
X81909Y53750D03*
X82461Y61624D03*
X86634Y51624D03*
X87461Y41939D03*
X88602Y10624D03*
X89783Y59655D03*
X92461Y7687D03*
X92933Y41939D03*
X94508Y62017D03*
X95295Y51624D03*
X98445Y6112D03*
X98642Y54124D03*
X103957D03*
X106713Y10443D03*
X108461Y59655D03*
X108681Y14576D03*
Y36820D03*
X110256Y10443D03*
X112618Y23435D03*
X113012Y4537D03*
X115374Y46269D03*
X118524Y34852D03*
D02*
D12*
X32461Y9124D03*
Y39124D03*
X35591Y54124D03*
X42461Y9124D03*
Y39124D03*
X52461Y9124D03*
Y39124D03*
X62461Y9124D03*
Y39124D03*
X72461Y9124D03*
Y39124D03*
X82461Y9124D03*
Y39124D03*
X114331Y54124D03*
D02*
D13*
X32295Y15624D03*
X36626D03*
X41295Y32624D03*
X42295Y15624D03*
X45626Y32624D03*
X46626Y15624D03*
X52295Y16624D03*
X56626D03*
X59295Y32624D03*
X63626D03*
X66295Y14624D03*
X69295Y32624D03*
X70626Y14624D03*
X73626Y32624D03*
D02*
D14*
X10039Y59124D03*
X14961D03*
D02*
D16*
X96673Y40757D03*
X101004D03*
D02*
D26*
X91571Y16545D03*
Y35836D03*
X93539Y16545D03*
Y35836D03*
X95508Y16545D03*
Y35836D03*
X97476Y16545D03*
Y35836D03*
X99445Y16545D03*
Y35836D03*
X101413Y16545D03*
Y35836D03*
X103382Y16545D03*
Y35836D03*
X105350Y16545D03*
Y35836D03*
D02*
D27*
X88815Y19301D03*
Y21269D03*
Y23238D03*
Y25206D03*
Y27175D03*
Y29143D03*
Y31112D03*
Y33080D03*
X108106Y19301D03*
Y21269D03*
Y23238D03*
Y25206D03*
Y27175D03*
Y29143D03*
Y31112D03*
Y33080D03*
D02*
D28*
X98461Y26191D03*
D02*
D29*
X92545Y11751D03*
X96470Y9921D03*
D02*
D72*
X114193Y10246D03*
Y14576D03*
D02*
D73*
X56161Y49537D03*
Y59537D03*
X66161Y49537D03*
Y59537D03*
X76161Y49537D03*
Y59537D03*
X0Y0D02*
M02*
