G04 DesignSpark PCB Gerber Version 9.0 Build 5138 *
%FSLAX35Y35*%
%MOIN*%
%ADD74R,0.02181X0.04346*%
%ADD71R,0.02654X0.03441*%
%ADD76R,0.13795X0.13795*%
%ADD19C,0.04937*%
%ADD75R,0.04346X0.02181*%
%ADD79C,0.06906*%
%ADD17C,0.07000*%
%ADD78R,0.03441X0.02654*%
%ADD18R,0.03953X0.03362*%
%AMT77*0 Rectangle Pad at angle 155*21,1,0.02654,0.03441,0,0,155*%
%ADD77T77*%
X0Y0D02*
D02*
D17*
X32461Y9124D03*
Y39124D03*
X35591Y54124D03*
X42461Y9124D03*
Y39124D03*
X52461Y9124D03*
Y39124D03*
X62461Y9124D03*
Y39124D03*
X72461Y9124D03*
Y39124D03*
X82461Y9124D03*
Y39124D03*
X114331Y54124D03*
D02*
D18*
X32295Y15624D03*
X36626D03*
X41295Y32624D03*
X42295Y15624D03*
X45626Y32624D03*
X46626Y15624D03*
X52295Y16624D03*
X56626D03*
X59295Y32624D03*
X63626D03*
X66295Y14624D03*
X69295Y32624D03*
X70626Y14624D03*
X73626Y32624D03*
D02*
D19*
X10039Y59124D03*
X14961D03*
D02*
D71*
X96673Y40757D03*
X101004D03*
D02*
D74*
X91571Y16545D03*
Y35836D03*
X93539Y16545D03*
Y35836D03*
X95508Y16545D03*
Y35836D03*
X97476Y16545D03*
Y35836D03*
X99445Y16545D03*
Y35836D03*
X101413Y16545D03*
Y35836D03*
X103382Y16545D03*
Y35836D03*
X105350Y16545D03*
Y35836D03*
D02*
D75*
X88815Y19301D03*
Y21269D03*
Y23238D03*
Y25206D03*
Y27175D03*
Y29143D03*
Y31112D03*
Y33080D03*
X108106Y19301D03*
Y21269D03*
Y23238D03*
Y25206D03*
Y27175D03*
Y29143D03*
Y31112D03*
Y33080D03*
D02*
D76*
X98461Y26191D03*
D02*
D77*
X92545Y11751D03*
X96470Y9921D03*
D02*
D78*
X114193Y10246D03*
Y14576D03*
D02*
D79*
X56161Y49537D03*
Y59537D03*
X66161Y49537D03*
Y59537D03*
X76161Y49537D03*
Y59537D03*
X0Y0D02*
M02*
