G04 DesignSpark PCB Gerber Version 9.0 Build 5138 *
%FSLAX35Y35*%
%MOIN*%
%ADD16R,0.01654X0.02441*%
%ADD15R,0.05512X0.05906*%
%ADD10C,0.00787*%
%ADD11C,0.02362*%
%ADD14C,0.03937*%
%ADD12C,0.06000*%
%ADD13R,0.02953X0.02362*%
X0Y0D02*
D02*
D10*
X10039Y59124D02*
X12539Y61624D01*
X12618*
X13799Y62805*
X66949*
X68524Y61230*
X82067*
X82461Y61624*
X14193Y14183D02*
X6461D01*
Y11828*
X14193Y39773D02*
X21461D01*
Y37419*
X29461Y59624D02*
X44902D01*
X32461Y25624D02*
Y39124D01*
X35591Y54124D02*
X35961D01*
X38461Y51624*
X67831*
X68461Y50994*
X84461*
X85091Y51624*
X86634*
X35591Y54124D02*
X19961D01*
X14961Y59124*
X35591Y54124D02*
Y53750D01*
X54461*
Y53624*
X72795*
X44902Y59624D02*
X67736D01*
Y59261*
X68917*
X69311Y58868*
X88602*
X89390Y59655*
X89783*
X47413Y22624D02*
Y25671D01*
X44461Y28624*
X50413Y45088D02*
X44626D01*
X35591Y54124*
X52461Y27576D02*
Y39124D01*
X57461Y12624D02*
X56461D01*
X54461Y14624*
X28461*
X27461Y15624*
Y43624*
X29461Y45624*
X62461Y24624D02*
Y9124D01*
X70492Y63986D02*
X70886Y63592D01*
X74823*
X76004Y64773*
X84665*
X86634Y62805*
X87028Y63198*
X91752*
X92933Y62017*
X94508*
X76004Y44301D02*
Y45876D01*
X79280*
X80461Y47057*
X109469*
X115894Y40631*
Y37230*
X115768Y37104*
X116272*
X118524Y34852*
X77126Y53624D02*
X80461D01*
Y53750*
X81909*
X78295Y14624D02*
X77579D01*
Y37214*
X77185Y37608*
Y41151*
X80728Y44694*
X107894*
X110256Y42332*
X110650*
X113406Y39576*
Y36033*
X116555Y32883*
Y23041*
X115768Y22254*
X113799*
X112618Y23435*
X81122Y25403D02*
Y39124D01*
X82461*
X81909Y53750D02*
X83484D01*
X84665Y54931*
X97835*
X98642Y54124*
X82626Y14624D02*
Y9289D01*
X82461Y9124*
X88602Y10624D02*
Y40624D01*
X88776*
X87461Y41939*
X88602Y10624D02*
Y6899D01*
X90965Y4537*
X97445*
X98445Y5537*
Y6112*
X92933Y41939D02*
X97854D01*
X100413Y39380*
X95295Y51624D02*
X86634D01*
X95461Y8868D02*
X105138D01*
X106713Y10443*
X95461Y8868D02*
X94280Y7687D01*
X92461*
X100413Y13789D02*
X105728D01*
X106713Y14773*
X108484*
X108681Y14576*
X103957Y54124D02*
X99480D01*
X99461Y54143*
X99441Y54124*
X98642*
X108461Y59655D02*
X106886Y58080D01*
X93327*
X92146Y56899*
X51736*
X51461Y56624*
X108681Y14576D02*
Y36820D01*
X110256Y10443D02*
Y8868D01*
X107894Y6506*
X105531*
X105138Y6899*
X100807*
X100020Y6112*
X98445*
X113012Y4537D02*
Y12600D01*
X111035Y14576*
X108681*
X114331Y54124D02*
X103957D01*
X115374Y46269D02*
Y48238D01*
X113413*
X112626Y49025*
X71461*
X67461Y45025*
Y42726*
D02*
D11*
X6461Y11828D03*
X21461Y37419D03*
X29461Y45624D03*
Y59624D03*
X32461Y25624D03*
X44461Y28624D03*
X44902Y59624D03*
X47413Y22624D03*
X50413Y45088D03*
X51461Y56624D03*
X52461Y27576D03*
X57461Y12624D03*
X62461Y24624D03*
X67461Y42726D03*
X70492Y63986D03*
X76004Y44301D03*
X81122Y25403D03*
X81909Y53750D03*
X82461Y61624D03*
X86634Y51624D03*
X87461Y41939D03*
X88602Y10624D03*
X89783Y59655D03*
X92461Y7687D03*
X92933Y41939D03*
X94508Y62017D03*
X95295Y51624D03*
X98445Y6112D03*
X98642Y54124D03*
X103957D03*
X106713Y10443D03*
X108461Y59655D03*
X108681Y14576D03*
Y36820D03*
X110256Y10443D03*
X112618Y23435D03*
X113012Y4537D03*
X115374Y46269D03*
X118524Y34852D03*
D02*
D12*
X32461Y9124D03*
Y39124D03*
X35591Y54124D03*
X42461Y9124D03*
Y39124D03*
X52461Y9124D03*
Y39124D03*
X62461Y9124D03*
Y39124D03*
X72461Y9124D03*
Y39124D03*
X82461Y9124D03*
Y39124D03*
X114331Y54124D03*
D02*
D13*
X78295Y14624D03*
X82626D03*
D02*
D14*
X10039Y59124D03*
X14961D03*
D02*
D15*
X14193Y14183D03*
Y39773D03*
X100413Y13789D03*
Y39380D03*
D02*
D16*
X72795Y53624D03*
X77126D03*
X0Y0D02*
M02*
