G04 DesignSpark PCB Gerber Version 9.0 Build 5138 *
%FSLAX35Y35*%
%MOIN*%
%ADD97R,0.01772X0.04331*%
%ADD96R,0.04134X0.07087*%
%ADD92R,0.06555X0.06555*%
%ADD94R,0.07500X0.07500*%
%ADD89C,0.01000*%
%ADD90C,0.02500*%
%ADD91C,0.04000*%
%ADD12C,0.06000*%
%ADD93C,0.06555*%
%ADD95C,0.07500*%
%ADD98C,0.09539*%
%ADD99C,0.11205*%
X0Y0D02*
D02*
D12*
X22600Y111600D03*
Y141600D03*
X32600Y111600D03*
Y141600D03*
X42600Y111600D03*
Y141600D03*
X52600Y111600D03*
Y141600D03*
X62600Y111600D03*
Y141600D03*
X72600Y111600D03*
Y141600D03*
D02*
D89*
X9100Y97100D02*
Y83100D01*
X13100Y79100*
X25100*
X18194Y100600D02*
X22100D01*
X24100Y98600*
Y84600*
X26600Y82100*
X29600Y79100*
X38100*
X41100Y82100*
X21100Y74600D02*
X37600D01*
X39600Y76600*
X25100Y39100D02*
X62600D01*
X25982Y31080D02*
Y10718D01*
X32100Y4600*
X73100*
X80600Y12100*
Y13600*
X27600Y94600D02*
X42600D01*
X43600Y93600*
X30006Y100600D02*
Y109006D01*
X32600Y111600*
Y45600D02*
X4600D01*
X35100Y82600D02*
X36100D01*
X38600Y85100*
X61100*
X63100Y87100*
X70100*
X71600Y88600*
Y110600*
X72600Y111600*
X36218Y31080D02*
X40580D01*
X42100Y32600*
X39600Y76600D02*
X65100D01*
X41100Y82100D02*
X42100Y83100D01*
X65100*
X42600Y45600D02*
X32600D01*
X42600Y61100D02*
Y55600D01*
Y61100D02*
X29600D01*
X42600Y125600D02*
X15600D01*
X13100Y123100*
X43600Y73600D02*
X55100D01*
X44100Y69600D02*
X56100D01*
X60100Y73600*
X49100Y79600D02*
X70100D01*
X49100Y100600D02*
X34600D01*
X52600Y45600D02*
X42600D01*
X52600Y55600D02*
Y54600D01*
X48600Y50600*
X14600*
X52600Y111600D02*
Y109100D01*
X49600Y106100*
X38600*
X37100Y104600*
X59600Y33100D02*
X80100D01*
X80600Y33600*
X64194Y100600D02*
Y110006D01*
X62600Y111600*
X65100Y76600D02*
X85100D01*
X67600Y114100D02*
Y114600D01*
X66100Y116100*
X45600*
X42600Y119100*
X74600Y59100D02*
X72600Y61100D01*
X42600*
X76006Y100600D02*
X82600D01*
X76600Y54100D02*
X64100D01*
X62600Y55600*
X80100Y61100D02*
X77600D01*
X73100Y65600*
X45600*
D02*
D90*
X4600Y45600D03*
X9100Y97100D03*
X13100Y123100D03*
X21100Y74600D03*
X25100Y39100D03*
Y79100D03*
X27600Y94600D03*
X29600Y61100D03*
X34600Y100600D03*
X35100Y82600D03*
X37100Y104600D03*
X39600Y76600D03*
X42100Y32600D03*
X42600Y119100D03*
Y125600D03*
X43600Y73600D03*
Y93600D03*
X44100Y69600D03*
X45600Y65600D03*
X49100Y79600D03*
Y100600D03*
X55100Y73600D03*
X59600Y33100D03*
X60100Y73600D03*
X62600Y39100D03*
X65100Y76600D03*
Y83100D03*
X67600Y114100D03*
X70100Y79600D03*
X74600Y59100D03*
X76600Y54100D03*
X80100Y61100D03*
X85100Y76600D03*
D02*
D91*
X14600Y50600D03*
X82600Y100600D03*
D02*
D92*
X62600Y55600D03*
D02*
D93*
X32600Y45600D03*
Y55600D03*
X42600Y45600D03*
Y55600D03*
X52600Y45600D03*
Y55600D03*
X62600Y45600D03*
D02*
D94*
X80600Y13600D03*
D02*
D95*
Y23600D03*
Y33600D03*
D02*
D96*
X18194Y100600D03*
X30006D03*
X64194D03*
X76006D03*
D02*
D97*
X25982Y31080D03*
X28541D03*
X31100D03*
X33659D03*
X36218D03*
D02*
D98*
X11612Y29033D03*
X50588D03*
D02*
D99*
X11612Y13285D03*
X50588D03*
X0Y0D02*
M02*
