G04 DesignSpark PCB Gerber Version 9.0 Build 5138 *
%FSLAX35Y35*%
%MOIN*%
%ADD24C,0.00394*%
%ADD23C,0.00500*%
%ADD10C,0.00787*%
X0Y0D02*
D02*
D10*
X24100Y103356D02*
Y97844D01*
X25982Y34742D02*
Y35529*
G75*
G03Y34742J-394D01*
G01*
Y35529D02*
G75*
G02Y34742J-394D01*
G01*
X70100Y97844D02*
Y103356D01*
X86604Y44092D02*
X68100D01*
Y3108*
X80600*
D02*
D23*
X17100Y147100D02*
X78100D01*
Y106100*
X17100*
Y125975*
X17725*
Y127225*
X17100*
Y147100*
X31100Y21269D02*
X31413Y20956D01*
X32037Y20644*
X32663Y20956*
X32975Y21269*
Y24394*
X33600*
X32975D02*
X31725D01*
X36725Y20644D02*
X37975D01*
X37350D02*
Y24394D01*
X36725Y23769*
X68600Y13413D02*
X70100D01*
X69350Y12663D02*
Y14163D01*
X71600Y12850D02*
X71975Y12663D01*
X72537*
X72913Y12850*
X73100Y13225*
Y13413*
X72913Y13787*
X72537Y13975*
X71600*
Y14913*
X73100*
X74600Y14163D02*
X75350Y12663D01*
X76100Y14163*
X68787Y32850D02*
X69163Y32663D01*
X69537*
X69913Y32850*
X70100Y33225*
X69913Y33600*
X69537Y33787*
X69163*
X69537D02*
X69913Y33975D01*
X70100Y34350*
X69913Y34725*
X69537Y34913*
X69163*
X68787Y34725*
X71600Y34163D02*
X72350Y32663D01*
X73100Y34163*
X74787Y32850D02*
X75163Y32663D01*
X75537*
X75913Y32850*
X76100Y33225*
X75913Y33600*
X75537Y33787*
X75163*
X75537D02*
X75913Y33975D01*
X76100Y34350*
X75913Y34725*
X75537Y34913*
X75163*
X74787Y34725*
D02*
D24*
X15352Y7576D02*
Y5608D01*
X46848*
Y7576*
X15352Y23324D02*
Y19387D01*
X46848Y23324D02*
Y19387D01*
X0Y0D02*
M02*
