G05
M48
INCH,TZ
FMAT,2
T1C000.01200
T2C000.02400
T3C000.03000
T4C000.04370
T5C000.05000
T6C000.06360
T7C000.07470
%
T001
X0.04600Y0.45600
X0.09100Y0.97100
X0.13100Y1.23100
X0.21100Y0.74600
X0.25100Y0.39100
X0.25100Y0.79100
X0.27600Y0.94600
X0.29600Y0.61100
X0.34600Y1.00600
X0.35100Y0.82600
X0.37100Y1.04600
X0.39600Y0.76600
X0.42100Y0.32600
X0.42600Y1.19100
X0.42600Y1.25600
X0.43600Y0.73600
X0.43600Y0.93600
X0.44100Y0.69600
X0.45600Y0.65600
X0.49100Y0.79600
X0.49100Y1.00600
X0.55100Y0.73600
X0.59600Y0.33100
X0.60100Y0.73600
X0.62600Y0.39100
X0.65100Y0.76600
X0.65100Y0.83100
X0.67600Y1.14100
X0.70100Y0.79600
X0.74600Y0.59100
X0.76600Y0.54100
X0.80100Y0.61100
X0.85100Y0.76600
T002
X0.14600Y0.50600
X0.82600Y1.00600
T003
X0.22600Y1.11600
X0.22600Y1.41600
X0.32600Y1.11600
X0.32600Y1.41600
X0.42600Y1.11600
X0.42600Y1.41600
X0.52600Y1.11600
X0.52600Y1.41600
X0.62600Y1.11600
X0.62600Y1.41600
X0.72600Y1.11600
X0.72600Y1.41600
T004
X0.32600Y0.45600
X0.32600Y0.55600
X0.42600Y0.45600
X0.42600Y0.55600
X0.52600Y0.45600
X0.52600Y0.55600
X0.62600Y0.45600
X0.62600Y0.55600
T005
X0.80600Y0.13600
X0.80600Y0.23600
X0.80600Y0.33600
T006
X0.11612Y0.29033
X0.50588Y0.29033
T007
X0.11612Y0.13285
X0.50588Y0.13285
M30
