G04 DesignSpark PCB Gerber Version 9.0 Build 5138 *
%FSLAX35Y35*%
%MOIN*%
%ADD110R,0.02559X0.06102*%
%ADD96R,0.04134X0.07087*%
%ADD92R,0.06555X0.06555*%
%ADD94R,0.07500X0.07500*%
%ADD89C,0.01000*%
%ADD90C,0.02500*%
%ADD91C,0.04000*%
%ADD12C,0.06000*%
%ADD93C,0.06555*%
%ADD95C,0.07500*%
%ADD98C,0.09539*%
%ADD99C,0.11205*%
%ADD111R,0.07087X0.04134*%
X0Y0D02*
D02*
D12*
X22600Y111600D03*
Y141600D03*
X32600Y111600D03*
Y141600D03*
X42600Y111600D03*
Y141600D03*
X52600Y111600D03*
Y141600D03*
X62600Y111600D03*
Y141600D03*
X72600Y111600D03*
Y141600D03*
D02*
D89*
X4600Y45600D02*
Y66872D01*
X5100Y67372*
X13100Y123100D02*
Y101100D01*
X9100Y97100*
X14600Y50600D02*
Y66872D01*
X15100Y67372*
X20100D02*
Y73600D01*
X21100Y74600*
X20100Y88828D02*
Y93100D01*
X17600*
X15100Y95600*
Y108100*
X18600Y111600*
X22600*
Y119694D02*
Y119600D01*
X27600Y114600*
Y94600*
X22600Y141600D02*
Y131506D01*
X25100Y67372D02*
Y39100D01*
Y79100D02*
Y88828D01*
X29600Y61100D02*
Y66872D01*
X30100Y67372*
Y88828D02*
Y92828D01*
X31600Y94328*
X32828*
X37600Y99100*
Y103600*
X37100Y104100*
Y104600*
X32600Y119694D02*
X37600Y114694D01*
Y110100*
Y109100*
X35600Y107100*
X35100*
X34100Y106100*
Y102600*
X34600Y102100*
Y100600*
X32600Y141600D02*
Y131506D01*
X35100Y67372D02*
Y62600D01*
X37600Y60100*
X35100Y88828D02*
Y82600D01*
X37600Y60100D02*
X39100D01*
X40600Y61600*
X43100*
X45100Y63600*
Y65100*
X45600Y65600*
X37600Y60100D02*
Y50600D01*
X32600Y45600*
X39600Y76600D02*
Y88328D01*
X40100Y88828*
Y67372D02*
X41872D01*
X44100Y69600*
X41694Y100600D02*
Y110694D01*
X42600Y111600*
X42100Y32600D02*
X43100D01*
X47600Y37100*
Y48100*
X50100Y50600*
X57600*
X62600Y55600*
X42600Y119100D02*
X49506D01*
X50100Y119694*
X42600Y141600D02*
Y125600D01*
X43600Y93600D02*
Y73600D01*
X45600Y65600D02*
X48328D01*
X50100Y67372*
X49100Y79600D02*
X47600D01*
X46100Y81100*
X50100Y88828D02*
Y93600D01*
X49100Y94600*
Y100600*
X50100Y119694D02*
Y117600D01*
X47600Y115100*
Y107600*
X46100Y106100*
Y97100*
X46600Y96600*
Y91100*
X46100Y90600*
Y81100*
X52600Y45600D02*
X57100Y41100D01*
Y35600*
X59600Y33100*
X52600Y141600D02*
Y138100D01*
X50100Y135600*
Y131506*
X55100Y73600D02*
Y67372D01*
Y88828D02*
Y99006D01*
X53506Y100600*
X60100Y73600D02*
Y67372D01*
Y88828D02*
Y103600D01*
X57600Y106100*
Y114694*
X62600Y119694*
Y39100D02*
Y45600D01*
X64600*
X69100Y50100*
Y66372*
X70100Y67372*
X62600Y141600D02*
Y131506D01*
X65100Y67372D02*
Y58100D01*
X62600Y55600*
X65100Y76600D02*
Y67372D01*
Y83100D02*
Y88828D01*
X70100Y79600D02*
Y88828D01*
Y104100*
X67600Y106600*
Y114100*
X72600Y119694D02*
X73006D01*
X77600Y115100*
Y97600*
X75100Y95100*
Y88828*
X72600Y141600D02*
Y131506D01*
X74600Y59100D02*
Y66872D01*
X75100Y67372*
X80100D02*
Y61100D01*
X80600Y23600D02*
X74600D01*
X72600Y25600*
Y48100*
X76600Y52100*
Y54100*
X82600Y100600D02*
Y98100D01*
X80100Y95600*
Y88828*
X85100Y76600D02*
Y88828D01*
D02*
D90*
X4600Y45600D03*
X9100Y97100D03*
X13100Y123100D03*
X21100Y74600D03*
X25100Y39100D03*
Y79100D03*
X27600Y94600D03*
X29600Y61100D03*
X34600Y100600D03*
X35100Y82600D03*
X37100Y104600D03*
X39600Y76600D03*
X42100Y32600D03*
X42600Y119100D03*
Y125600D03*
X43600Y73600D03*
Y93600D03*
X44100Y69600D03*
X45600Y65600D03*
X49100Y79600D03*
Y100600D03*
X55100Y73600D03*
X59600Y33100D03*
X60100Y73600D03*
X62600Y39100D03*
X65100Y76600D03*
Y83100D03*
X67600Y114100D03*
X70100Y79600D03*
X74600Y59100D03*
X76600Y54100D03*
X80100Y61100D03*
X85100Y76600D03*
D02*
D91*
X14600Y50600D03*
X82600Y100600D03*
D02*
D92*
X62600Y55600D03*
D02*
D93*
X32600Y45600D03*
Y55600D03*
X42600Y45600D03*
Y55600D03*
X52600Y45600D03*
Y55600D03*
X62600Y45600D03*
D02*
D94*
X80600Y13600D03*
D02*
D95*
Y23600D03*
Y33600D03*
D02*
D96*
X41694Y100600D03*
X53506D03*
D02*
D98*
X11612Y29033D03*
X50588D03*
D02*
D99*
X11612Y13285D03*
X50588D03*
D02*
D110*
X5100Y67372D03*
Y88828D03*
X10100Y67372D03*
Y88828D03*
X15100Y67372D03*
Y88828D03*
X20100Y67372D03*
Y88828D03*
X25100Y67372D03*
Y88828D03*
X30100Y67372D03*
Y88828D03*
X35100Y67372D03*
Y88828D03*
X40100Y67372D03*
Y88828D03*
X50100Y67372D03*
Y88828D03*
X55100Y67372D03*
Y88828D03*
X60100Y67372D03*
Y88828D03*
X65100Y67372D03*
Y88828D03*
X70100Y67372D03*
Y88828D03*
X75100Y67372D03*
Y88828D03*
X80100Y67372D03*
Y88828D03*
X85100Y67372D03*
Y88828D03*
D02*
D111*
X22600Y119694D03*
Y131506D03*
X32600Y119694D03*
Y131506D03*
X50100Y119694D03*
Y131506D03*
X62600Y119694D03*
Y131506D03*
X72600Y119694D03*
Y131506D03*
X0Y0D02*
M02*
